<mxfile host="app.diagrams.net" modified="2021-01-14T11:10:54.853Z" agent="5.0 (X11; Linux x86_64) AppleWebKit/537.36 (KHTML, like Gecko) Chrome/87.0.4280.88 Safari/537.36" etag="u3ej1vI8za5awqIZc5ZP" version="14.2.2" type="gitlab" pages="2">
  <diagram id="31cn8sJxo2LnZOZxLTl7" name="Page-1">
    <mxGraphModel dx="949" dy="1122" grid="1" gridSize="10" guides="1" tooltips="1" connect="1" arrows="1" fold="1" page="1" pageScale="1" pageWidth="291" pageHeight="413" math="0" shadow="0">
      <root>
        <mxCell id="0" />
        <mxCell id="1" parent="0" />
        <mxCell id="iEsSIf3HNwrJCTN_U79i-29" value="chat" style="shape=umlFrame;whiteSpace=wrap;html=1;width=90;height=30;" parent="1" vertex="1">
          <mxGeometry x="970" y="20" width="380" height="190" as="geometry" />
        </mxCell>
        <mxCell id="iEsSIf3HNwrJCTN_U79i-30" value="authentication" style="shape=umlFrame;whiteSpace=wrap;html=1;width=80;height=30;" parent="1" vertex="1">
          <mxGeometry x="930" y="-290" width="430" height="240" as="geometry" />
        </mxCell>
        <mxCell id="iEsSIf3HNwrJCTN_U79i-31" value="activity" style="shape=umlFrame;whiteSpace=wrap;html=1;width=70;height=30;" parent="1" vertex="1">
          <mxGeometry x="460" y="-310" width="410" height="560" as="geometry" />
        </mxCell>
        <mxCell id="8GSgh4wZx7indwMNPTsy-1" value="User" style="shape=umlActor;verticalLabelPosition=bottom;verticalAlign=top;html=1;outlineConnect=0;" parent="1" vertex="1">
          <mxGeometry x="410" y="90" width="30" height="45" as="geometry" />
        </mxCell>
        <mxCell id="iEsSIf3HNwrJCTN_U79i-1" value="gerer une offre" style="ellipse;whiteSpace=wrap;html=1;fillColor=#fff2cc;strokeColor=#d6b656;" parent="1" vertex="1">
          <mxGeometry x="630" y="-180" width="140" height="70" as="geometry" />
        </mxCell>
        <mxCell id="iEsSIf3HNwrJCTN_U79i-2" value="echanger offre" style="ellipse;whiteSpace=wrap;html=1;fillColor=#fff2cc;strokeColor=#d6b656;" parent="1" vertex="1">
          <mxGeometry x="710" y="120" width="130" height="60" as="geometry" />
        </mxCell>
        <mxCell id="iEsSIf3HNwrJCTN_U79i-3" value="rechercher offre" style="ellipse;whiteSpace=wrap;html=1;fillColor=#fff2cc;strokeColor=#d6b656;" parent="1" vertex="1">
          <mxGeometry x="540" y="160" width="140" height="70" as="geometry" />
        </mxCell>
        <mxCell id="iEsSIf3HNwrJCTN_U79i-4" value="Extends" style="endArrow=block;endSize=16;endFill=0;html=1;" parent="1" source="iEsSIf3HNwrJCTN_U79i-2" target="iEsSIf3HNwrJCTN_U79i-3" edge="1">
          <mxGeometry width="160" relative="1" as="geometry">
            <mxPoint x="590" y="230" as="sourcePoint" />
            <mxPoint x="750" y="230" as="targetPoint" />
          </mxGeometry>
        </mxCell>
        <mxCell id="iEsSIf3HNwrJCTN_U79i-5" value="envoyer message" style="ellipse;whiteSpace=wrap;html=1;" parent="1" vertex="1">
          <mxGeometry x="1060" y="40" width="140" height="70" as="geometry" />
        </mxCell>
        <mxCell id="iEsSIf3HNwrJCTN_U79i-6" value="supprimer message" style="ellipse;whiteSpace=wrap;html=1;" parent="1" vertex="1">
          <mxGeometry x="1000" y="130" width="140" height="70" as="geometry" />
        </mxCell>
        <mxCell id="iEsSIf3HNwrJCTN_U79i-7" value="rechercher message" style="ellipse;whiteSpace=wrap;html=1;" parent="1" vertex="1">
          <mxGeometry x="1197" y="90" width="140" height="70" as="geometry" />
        </mxCell>
        <mxCell id="iEsSIf3HNwrJCTN_U79i-8" value="Extends" style="endArrow=block;endSize=16;endFill=0;html=1;" parent="1" source="iEsSIf3HNwrJCTN_U79i-6" target="iEsSIf3HNwrJCTN_U79i-5" edge="1">
          <mxGeometry width="160" relative="1" as="geometry">
            <mxPoint x="590" y="170" as="sourcePoint" />
            <mxPoint x="750" y="170" as="targetPoint" />
          </mxGeometry>
        </mxCell>
        <mxCell id="iEsSIf3HNwrJCTN_U79i-9" value="Extends" style="endArrow=block;endSize=16;endFill=0;html=1;" parent="1" source="iEsSIf3HNwrJCTN_U79i-7" target="iEsSIf3HNwrJCTN_U79i-5" edge="1">
          <mxGeometry width="160" relative="1" as="geometry">
            <mxPoint x="864" y="190" as="sourcePoint" />
            <mxPoint x="864" y="130" as="targetPoint" />
          </mxGeometry>
        </mxCell>
        <mxCell id="iEsSIf3HNwrJCTN_U79i-10" value="Extends" style="endArrow=block;endSize=16;endFill=0;html=1;" parent="1" source="iEsSIf3HNwrJCTN_U79i-5" target="iEsSIf3HNwrJCTN_U79i-2" edge="1">
          <mxGeometry width="160" relative="1" as="geometry">
            <mxPoint x="590" y="170" as="sourcePoint" />
            <mxPoint x="750" y="170" as="targetPoint" />
          </mxGeometry>
        </mxCell>
        <mxCell id="iEsSIf3HNwrJCTN_U79i-11" value="creer compte" style="ellipse;whiteSpace=wrap;html=1;" parent="1" vertex="1">
          <mxGeometry x="1197" y="-150" width="140" height="70" as="geometry" />
        </mxCell>
        <mxCell id="iEsSIf3HNwrJCTN_U79i-12" value="connexion" style="ellipse;whiteSpace=wrap;html=1;fillColor=#fff2cc;strokeColor=#d6b656;" parent="1" vertex="1">
          <mxGeometry x="1000" y="-270" width="140" height="70" as="geometry" />
        </mxCell>
        <mxCell id="iEsSIf3HNwrJCTN_U79i-13" value="verifier email" style="ellipse;whiteSpace=wrap;html=1;" parent="1" vertex="1">
          <mxGeometry x="1010" y="-150" width="140" height="70" as="geometry" />
        </mxCell>
        <mxCell id="iEsSIf3HNwrJCTN_U79i-14" value="changer mot de passe" style="ellipse;whiteSpace=wrap;html=1;" parent="1" vertex="1">
          <mxGeometry x="1190" y="-260" width="140" height="70" as="geometry" />
        </mxCell>
        <mxCell id="iEsSIf3HNwrJCTN_U79i-15" value="Use" style="endArrow=open;endSize=12;dashed=1;html=1;" parent="1" source="iEsSIf3HNwrJCTN_U79i-13" target="iEsSIf3HNwrJCTN_U79i-11" edge="1">
          <mxGeometry width="160" relative="1" as="geometry">
            <mxPoint x="590" y="60" as="sourcePoint" />
            <mxPoint x="750" y="60" as="targetPoint" />
          </mxGeometry>
        </mxCell>
        <mxCell id="iEsSIf3HNwrJCTN_U79i-16" value="Use" style="endArrow=open;endSize=12;dashed=1;html=1;" parent="1" source="iEsSIf3HNwrJCTN_U79i-12" target="iEsSIf3HNwrJCTN_U79i-11" edge="1">
          <mxGeometry width="160" relative="1" as="geometry">
            <mxPoint x="909.4150699996621" y="-19.192792608857303" as="sourcePoint" />
            <mxPoint x="844.3999356192257" y="-50.710874400373086" as="targetPoint" />
          </mxGeometry>
        </mxCell>
        <mxCell id="iEsSIf3HNwrJCTN_U79i-17" value="Use" style="endArrow=open;endSize=12;dashed=1;html=1;entryX=1;entryY=0.5;entryDx=0;entryDy=0;" parent="1" source="iEsSIf3HNwrJCTN_U79i-14" target="iEsSIf3HNwrJCTN_U79i-11" edge="1">
          <mxGeometry width="160" relative="1" as="geometry">
            <mxPoint x="938.4759425530722" y="-123.75006479174112" as="sourcePoint" />
            <mxPoint x="854.3999356192257" y="-40.710874400373086" as="targetPoint" />
          </mxGeometry>
        </mxCell>
        <mxCell id="iEsSIf3HNwrJCTN_U79i-18" value="Use" style="endArrow=open;endSize=12;dashed=1;html=1;" parent="1" source="iEsSIf3HNwrJCTN_U79i-1" target="iEsSIf3HNwrJCTN_U79i-12" edge="1">
          <mxGeometry width="160" relative="1" as="geometry">
            <mxPoint x="590" y="-40" as="sourcePoint" />
            <mxPoint x="750" y="-40" as="targetPoint" />
          </mxGeometry>
        </mxCell>
        <mxCell id="iEsSIf3HNwrJCTN_U79i-19" value="Use" style="endArrow=open;endSize=12;dashed=1;html=1;exitX=1;exitY=0.286;exitDx=0;exitDy=0;exitPerimeter=0;" parent="1" source="iEsSIf3HNwrJCTN_U79i-1" target="iEsSIf3HNwrJCTN_U79i-13" edge="1">
          <mxGeometry width="160" relative="1" as="geometry">
            <mxPoint x="518.3293334267678" y="-57.00565913863852" as="sourcePoint" />
            <mxPoint x="621.5703073762586" y="-173.01659579829084" as="targetPoint" />
          </mxGeometry>
        </mxCell>
        <mxCell id="iEsSIf3HNwrJCTN_U79i-20" value="gerer une alerte d&#39;offre" style="ellipse;whiteSpace=wrap;html=1;fillColor=#fff2cc;strokeColor=#d6b656;" parent="1" vertex="1">
          <mxGeometry x="685" y="-65" width="140" height="70" as="geometry" />
        </mxCell>
        <mxCell id="iEsSIf3HNwrJCTN_U79i-21" value="Use" style="endArrow=open;endSize=12;dashed=1;html=1;exitX=1;exitY=0.5;exitDx=0;exitDy=0;" parent="1" source="iEsSIf3HNwrJCTN_U79i-20" target="iEsSIf3HNwrJCTN_U79i-13" edge="1">
          <mxGeometry width="160" relative="1" as="geometry">
            <mxPoint x="630" y="-40" as="sourcePoint" />
            <mxPoint x="750" y="-40" as="targetPoint" />
          </mxGeometry>
        </mxCell>
        <mxCell id="iEsSIf3HNwrJCTN_U79i-22" value="Use" style="endArrow=open;endSize=12;dashed=1;html=1;exitX=1;exitY=0;exitDx=0;exitDy=0;" parent="1" source="iEsSIf3HNwrJCTN_U79i-20" target="iEsSIf3HNwrJCTN_U79i-12" edge="1">
          <mxGeometry width="160" relative="1" as="geometry">
            <mxPoint x="600" y="-30" as="sourcePoint" />
            <mxPoint x="746.6642477568378" y="-92.33230529665593" as="targetPoint" />
          </mxGeometry>
        </mxCell>
        <mxCell id="iEsSIf3HNwrJCTN_U79i-24" value="" style="endArrow=none;html=1;exitX=0.5;exitY=0;exitDx=0;exitDy=0;exitPerimeter=0;" parent="1" target="iEsSIf3HNwrJCTN_U79i-20" edge="1">
          <mxGeometry width="50" height="50" relative="1" as="geometry">
            <mxPoint x="435" y="110" as="sourcePoint" />
            <mxPoint x="550" y="50" as="targetPoint" />
          </mxGeometry>
        </mxCell>
        <mxCell id="iEsSIf3HNwrJCTN_U79i-25" value="" style="endArrow=none;html=1;" parent="1" target="iEsSIf3HNwrJCTN_U79i-1" edge="1">
          <mxGeometry width="50" height="50" relative="1" as="geometry">
            <mxPoint x="430" y="100" as="sourcePoint" />
            <mxPoint x="516.7665651886336" y="18.015933679310137" as="targetPoint" />
            <Array as="points">
              <mxPoint x="520" y="40" />
            </Array>
          </mxGeometry>
        </mxCell>
        <mxCell id="iEsSIf3HNwrJCTN_U79i-26" value="" style="endArrow=none;html=1;exitX=0.5;exitY=0;exitDx=0;exitDy=0;exitPerimeter=0;" parent="1" target="iEsSIf3HNwrJCTN_U79i-2" edge="1">
          <mxGeometry width="50" height="50" relative="1" as="geometry">
            <mxPoint x="455" y="130" as="sourcePoint" />
            <mxPoint x="467.94206638789694" y="-90.01512859424838" as="targetPoint" />
          </mxGeometry>
        </mxCell>
        <mxCell id="wRsKCiRsCAKMiMHmvKu_-1" value="initier parrainage" style="ellipse;whiteSpace=wrap;html=1;fillColor=#fff2cc;strokeColor=#d6b656;" vertex="1" parent="1">
          <mxGeometry x="670" y="30" width="170" height="60" as="geometry" />
        </mxCell>
        <mxCell id="wRsKCiRsCAKMiMHmvKu_-2" value="" style="endArrow=none;html=1;exitX=0.5;exitY=0;exitDx=0;exitDy=0;exitPerimeter=0;entryX=0.357;entryY=1;entryDx=0;entryDy=0;entryPerimeter=0;" edge="1" parent="1" target="wRsKCiRsCAKMiMHmvKu_-1">
          <mxGeometry width="50" height="50" relative="1" as="geometry">
            <mxPoint x="445" y="120" as="sourcePoint" />
            <mxPoint x="704.0115203322548" y="-28.61316740375287" as="targetPoint" />
          </mxGeometry>
        </mxCell>
        <mxCell id="wRsKCiRsCAKMiMHmvKu_-3" value="gerer profile" style="ellipse;whiteSpace=wrap;html=1;fillColor=#f8cecc;strokeColor=#b85450;" vertex="1" parent="1">
          <mxGeometry x="480" y="-252" width="140" height="90" as="geometry" />
        </mxCell>
        <mxCell id="wRsKCiRsCAKMiMHmvKu_-4" value="" style="endArrow=none;html=1;entryX=0.592;entryY=1.014;entryDx=0;entryDy=0;entryPerimeter=0;" edge="1" parent="1" target="wRsKCiRsCAKMiMHmvKu_-3">
          <mxGeometry width="50" height="50" relative="1" as="geometry">
            <mxPoint x="440" y="110" as="sourcePoint" />
            <mxPoint x="668.1360564738943" y="-113.83636292501706" as="targetPoint" />
          </mxGeometry>
        </mxCell>
        <mxCell id="wRsKCiRsCAKMiMHmvKu_-9" value="Use" style="endArrow=open;endSize=12;dashed=1;html=1;" edge="1" parent="1" source="wRsKCiRsCAKMiMHmvKu_-3">
          <mxGeometry width="160" relative="1" as="geometry">
            <mxPoint x="764.5805914001539" y="-158.5032145654867" as="sourcePoint" />
            <mxPoint x="1015.4855237403324" y="-211.41800499796466" as="targetPoint" />
          </mxGeometry>
        </mxCell>
        <mxCell id="wRsKCiRsCAKMiMHmvKu_-10" value="Use" style="endArrow=open;endSize=12;dashed=1;html=1;exitX=1;exitY=0.5;exitDx=0;exitDy=0;" edge="1" parent="1" source="wRsKCiRsCAKMiMHmvKu_-1">
          <mxGeometry width="160" relative="1" as="geometry">
            <mxPoint x="835" y="-20" as="sourcePoint" />
            <mxPoint x="1031.6558216243802" y="-85.66119930246305" as="targetPoint" />
          </mxGeometry>
        </mxCell>
        <mxCell id="wRsKCiRsCAKMiMHmvKu_-11" value="Use" style="endArrow=open;endSize=12;dashed=1;html=1;exitX=1;exitY=0;exitDx=0;exitDy=0;" edge="1" parent="1" source="wRsKCiRsCAKMiMHmvKu_-1" target="iEsSIf3HNwrJCTN_U79i-12">
          <mxGeometry width="160" relative="1" as="geometry">
            <mxPoint x="830" y="60" as="sourcePoint" />
            <mxPoint x="1041.6558216243802" y="-75.66119930246305" as="targetPoint" />
          </mxGeometry>
        </mxCell>
      </root>
    </mxGraphModel>
  </diagram>
  <diagram id="jWzmkYTxirftH9taYTOI" name="Page-2">
    <mxGraphModel dx="868" dy="496" grid="1" gridSize="10" guides="1" tooltips="1" connect="1" arrows="1" fold="1" page="1" pageScale="1" pageWidth="827" pageHeight="1169" math="0" shadow="0">
      <root>
        <mxCell id="b3FkeZFk4ixrGaQLPnSb-0" />
        <mxCell id="b3FkeZFk4ixrGaQLPnSb-1" parent="b3FkeZFk4ixrGaQLPnSb-0" />
      </root>
    </mxGraphModel>
  </diagram>
</mxfile>
